<svg width="37" height="37" viewBox="0 0 37 37" fill="none" xmlns="http://www.w3.org/2000/svg">
<path d="M2.26129 5.58252C1.49368 5.58247 0.864427 6.20986 0.864502 6.97789V28.9922C0.864204 29.7603 1.49271 30.3905 2.26129 30.3904H33.7111C34.4798 30.3905 35.1083 29.7604 35.1079 28.9922V6.97789C35.1079 6.20988 34.4787 5.58247 33.7111 5.58252H2.26129ZM5.98427 8.92675H29.9794L17.9833 19.4081L5.98427 8.92675ZM32.3143 10.596V26.0805L23.5415 18.2603L32.3143 10.596ZM3.65816 10.6047L12.4674 18.3025L3.65816 26.1562V10.6047ZM21.4222 20.1116L29.7682 27.5531H6.29014L14.5881 20.1553L17.0613 22.3168C17.5858 22.7747 18.3749 22.7746 18.8995 22.3168L21.4222 20.1116Z" fill="white"/>
</svg>
