<svg width="34" height="34" viewBox="0 0 34 34" fill="none" xmlns="http://www.w3.org/2000/svg">
<path d="M29.9201 0.680176H4.08005C2.20529 0.680176 0.680054 2.20542 0.680054 4.08018V29.9202C0.680054 31.7949 2.20529 33.3202 4.08005 33.3202H18.3601V20.4002H14.2801V16.3202H18.3601V13.6002C18.3601 9.47598 21.7159 6.12018 25.8401 6.12018H27.8801V10.2002H25.8401C23.9653 10.2002 22.4401 11.7254 22.4401 13.6002V16.3202H27.7896L27.2796 20.4002H22.4401V33.3202H29.9201C31.7948 33.3202 33.3201 31.7949 33.3201 29.9202V4.08018C33.3201 2.20542 31.7948 0.680176 29.9201 0.680176ZM31.9601 29.9202C31.9601 31.0449 31.0448 31.9602 29.9201 31.9602H23.8001V21.7602H28.4805L29.3305 14.9602H23.8001V13.6002C23.8001 12.4755 24.7153 11.5602 25.8401 11.5602H29.2401V4.76018H25.8401C20.9658 4.76018 17.0001 8.72594 17.0001 13.6002V14.9602H12.9201V21.7602H17.0001V31.9602H4.08005C2.95533 31.9602 2.04005 31.0449 2.04005 29.9202V4.08018C2.04005 2.95546 2.95533 2.04018 4.08005 2.04018H29.9201C31.0448 2.04018 31.9601 2.95546 31.9601 4.08018V29.9202Z" fill="white" stroke="white"/>
</svg>
