<svg width="42" height="42" viewBox="0 0 42 42" fill="none" xmlns="http://www.w3.org/2000/svg">
<path d="M20.9983 12.9097C18.8521 12.9097 16.7939 13.7622 15.2763 15.2798C13.7588 16.7973 12.9063 18.8555 12.9062 21.0017C12.9063 23.1478 13.7588 25.206 15.2763 26.7236C16.7939 28.2411 18.8521 29.0937 20.9983 29.0937C23.1444 29.0937 25.2026 28.2411 26.7202 26.7236C28.2377 25.206 29.0903 23.1478 29.0903 21.0017C29.0903 18.8555 28.2377 16.7973 26.7202 15.2798C25.2026 13.7622 23.1444 12.9097 20.9983 12.9097ZM20.9983 26.2569C19.604 26.2569 18.2669 25.7031 17.281 24.7172C16.2951 23.7313 15.7413 22.3942 15.7413 20.9999C15.7413 19.6057 16.2951 18.2685 17.281 17.2827C18.2669 16.2968 19.604 15.7429 20.9983 15.7429C22.3925 15.7429 23.7296 16.2968 24.7155 17.2827C25.7014 18.2685 26.2553 19.6057 26.2553 20.9999C26.2553 22.3942 25.7014 23.7313 24.7155 24.7172C23.7296 25.7031 22.3925 26.2569 20.9983 26.2569Z" fill="white"/>
<path d="M29.4105 14.4988C30.4524 14.4988 31.2971 13.6542 31.2971 12.6123C31.2971 11.5704 30.4524 10.7258 29.4105 10.7258C28.3687 10.7258 27.524 11.5704 27.524 12.6123C27.524 13.6542 28.3687 14.4988 29.4105 14.4988Z" fill="white"/>
<path d="M35.9328 10.6943C35.5277 9.6481 34.9086 8.69803 34.1151 7.90489C33.3217 7.11175 32.3714 6.49301 31.325 6.08829C30.1006 5.62866 28.8071 5.38014 27.4995 5.35329C25.8143 5.27979 25.2805 5.25879 21.007 5.25879C16.7335 5.25879 16.1858 5.25879 14.5145 5.35329C13.208 5.37876 11.9154 5.62734 10.6925 6.08829C9.64593 6.49254 8.69538 7.11111 7.90187 7.90431C7.10837 8.69752 6.48944 9.64783 6.08479 10.6943C5.62507 11.9186 5.37712 13.2123 5.35154 14.5198C5.27629 16.2033 5.25354 16.737 5.25354 21.0123C5.25354 25.2858 5.25354 25.83 5.35154 27.5048C5.37779 28.8138 5.62454 30.1053 6.08479 31.332C6.49058 32.3781 7.11011 33.3281 7.9038 34.1211C8.6975 34.9142 9.6479 35.533 10.6943 35.938C11.9148 36.4161 13.2079 36.6825 14.518 36.7255C16.2033 36.799 16.737 36.8218 21.0105 36.8218C25.284 36.8218 25.8318 36.8218 27.503 36.7255C28.8105 36.6989 30.1039 36.451 31.3285 35.9923C32.3746 35.5866 33.3246 34.9673 34.118 34.174C34.9113 33.3806 35.5306 32.4306 35.9363 31.3845C36.3965 30.1595 36.6433 28.868 36.6695 27.559C36.7448 25.8755 36.7675 25.3418 36.7675 21.0665C36.7675 16.7913 36.7675 16.2488 36.6695 14.574C36.6492 13.248 36.3999 11.9355 35.9328 10.6943ZM33.8013 27.3753C33.79 28.3838 33.6059 29.383 33.257 30.3293C32.9942 31.0098 32.5919 31.6278 32.0759 32.1435C31.5599 32.6592 30.9417 33.0611 30.261 33.3235C29.3252 33.6708 28.3367 33.8549 27.3385 33.8678C25.676 33.9448 25.207 33.964 20.944 33.964C16.6775 33.964 16.2418 33.964 14.5478 33.8678C13.5502 33.8556 12.5621 33.6715 11.627 33.3235C10.944 33.0628 10.3233 32.6615 9.8051 32.1457C9.2869 31.6299 8.88275 31.0111 8.61879 30.3293C8.27482 29.3931 8.09084 28.4058 8.07454 27.4085C7.99929 25.746 7.98179 25.277 7.98179 21.014C7.98179 16.7493 7.98179 16.3135 8.07454 14.6178C8.08585 13.6098 8.26994 12.6113 8.61879 11.6655C9.15254 10.2848 10.2463 9.19804 11.627 8.66954C12.5626 8.32328 13.5503 8.13923 14.5478 8.12529C16.212 8.05004 16.6793 8.02904 20.944 8.02904C25.2088 8.02904 25.6463 8.02904 27.3385 8.12529C28.3368 8.1373 29.3254 8.32141 30.261 8.66954C30.9417 8.93252 31.5598 9.33489 32.0757 9.85084C32.5917 10.3668 32.9941 10.9849 33.257 11.6655C33.601 12.6017 33.785 13.5891 33.8013 14.5863C33.8765 16.2505 33.8958 16.7178 33.8958 20.9825C33.8958 25.2455 33.8958 25.704 33.8205 27.377H33.8013V27.3753Z" fill="white"/>
</svg>
