<svg width="42" height="42" viewBox="0 0 42 42" fill="none" xmlns="http://www.w3.org/2000/svg">
<path fill-rule="evenodd" clip-rule="evenodd" d="M32.2052 9.8578C30.7499 8.39285 29.0183 7.23125 27.1108 6.44031C25.2032 5.64937 23.1577 5.2448 21.0927 5.25005C12.4338 5.25005 5.38475 12.2973 5.38125 20.9598C5.38125 23.7283 6.104 26.4303 7.47775 28.8138L5.25 36.953L13.5782 34.7673C15.8819 36.0213 18.4628 36.6789 21.0857 36.68H21.0927C29.75 36.68 36.799 29.6328 36.8025 20.9703C36.8084 18.9061 36.4052 16.8613 35.6161 14.9539C34.8271 13.0465 33.6678 11.3145 32.2052 9.8578ZM21.0927 34.0288H21.0875C18.7487 34.029 16.4529 33.3998 14.441 32.207L13.965 31.9236L9.023 33.2203L10.3407 28.4025L10.031 27.909C8.72338 25.8273 8.03116 23.4182 8.03425 20.9598C8.03775 13.7603 13.895 7.90305 21.098 7.90305C22.8134 7.89924 24.5126 8.23569 26.0971 8.89294C27.6817 9.55019 29.1201 10.5152 30.3292 11.7321C31.5448 12.9431 32.5083 14.3831 33.1641 15.9688C33.8198 17.5545 34.1547 19.2544 34.1495 20.9703C34.146 28.1698 28.2887 34.0288 21.0927 34.0288ZM28.2555 24.2481C27.8617 24.0503 25.9332 23.1018 25.5727 22.9706C25.214 22.8393 24.9532 22.7745 24.6907 23.1665C24.4282 23.5585 23.6757 24.4423 23.4465 24.7048C23.2172 24.9673 22.988 24.9988 22.596 24.8028C22.204 24.6068 20.9387 24.1921 19.439 22.8551C18.2717 21.8138 17.4842 20.5293 17.255 20.1355C17.0257 19.7418 17.2305 19.5301 17.4282 19.3341C17.605 19.1591 17.8202 18.8755 18.0162 18.6463C18.2122 18.417 18.277 18.2543 18.4082 17.9918C18.5395 17.7293 18.4747 17.5 18.375 17.304C18.277 17.1063 17.4912 15.1743 17.164 14.3885C16.8472 13.6273 16.5235 13.7288 16.282 13.7183C16.0319 13.7081 15.7816 13.7034 15.5312 13.7043C15.3322 13.7094 15.1363 13.7555 14.956 13.8398C14.7756 13.9242 14.6146 14.0448 14.483 14.1943C14.1225 14.588 13.1092 15.5366 13.1092 17.4686C13.1092 19.4006 14.5162 21.2678 14.7122 21.5303C14.9082 21.7928 17.4808 25.7565 21.4182 27.4576C22.3562 27.8618 23.0877 28.1033 23.6565 28.2853C24.5962 28.5846 25.452 28.5408 26.1292 28.4411C26.8835 28.3291 28.4515 27.4925 28.7787 26.5756C29.106 25.6586 29.106 24.8728 29.008 24.7083C28.91 24.5438 28.6457 24.444 28.2555 24.2481Z" fill="white"/>
</svg>
